<svg width="50" height="50" viewBox="0 0 50 50" fill="none" xmlns="http://www.w3.org/2000/svg">
<g filter="url(#filter0_d_14_107)">
<circle cx="25" cy="21" r="15" fill="white"/>
</g>
<path d="M17 20C16.4477 20 16 20.4477 16 21C16 21.5523 16.4477 22 17 22L17 20ZM32.7071 21.7071C33.0976 21.3166 33.0976 20.6834 32.7071 20.2929L26.3431 13.9289C25.9526 13.5384 25.3195 13.5384 24.9289 13.9289C24.5384 14.3195 24.5384 14.9526 24.9289 15.3431L30.5858 21L24.9289 26.6569C24.5384 27.0474 24.5384 27.6805 24.9289 28.0711C25.3195 28.4616 25.9526 28.4616 26.3431 28.0711L32.7071 21.7071ZM17 22L32 22L32 20L17 20L17 22Z" fill="black"/>
<defs>
<filter id="filter0_d_14_107" x="0" y="0" width="50" height="50" filterUnits="userSpaceOnUse" color-interpolation-filters="sRGB">
<feFlood flood-opacity="0" result="BackgroundImageFix"/>
<feColorMatrix in="SourceAlpha" type="matrix" values="0 0 0 0 0 0 0 0 0 0 0 0 0 0 0 0 0 0 127 0" result="hardAlpha"/>
<feOffset dy="4"/>
<feGaussianBlur stdDeviation="5"/>
<feComposite in2="hardAlpha" operator="out"/>
<feColorMatrix type="matrix" values="0 0 0 0 0 0 0 0 0 0 0 0 0 0 0 0 0 0 0.1 0"/>
<feBlend mode="normal" in2="BackgroundImageFix" result="effect1_dropShadow_14_107"/>
<feBlend mode="normal" in="SourceGraphic" in2="effect1_dropShadow_14_107" result="shape"/>
</filter>
</defs>
</svg>
