<svg width="44" height="44" viewBox="0 0 44 44" fill="none" xmlns="http://www.w3.org/2000/svg">
<path d="M17 25.5C17 27.44 18.5 29 20.34 29H24.1C25.7 29 27 27.64 27 25.94C27 24.12 26.2 23.46 25.02 23.04L19 20.94C17.82 20.52 17.02 19.88 17.02 18.04C17.02 16.36 18.32 14.98 19.92 14.98H23.68C25.52 14.98 27.02 16.54 27.02 18.48M22 13V31" stroke="#2359C0" stroke-width="2" stroke-linecap="round" stroke-linejoin="round"/>
<path d="M42 22C42 33.04 33.04 42 22 42C10.96 42 2 33.04 2 22C2 10.96 10.96 2 22 2M42 10V2M42 2H34M42 2L32 12" stroke="#2359C0" stroke-width="3" stroke-linecap="round" stroke-linejoin="round"/>
</svg>
