<svg width="49" height="52" viewBox="0 0 49 52" fill="none" xmlns="http://www.w3.org/2000/svg">
<path d="M2 50C2 40.712 11.24 33.2 22.616 33.2M46.616 50L44.216 47.6M22.616 26C25.7986 26 28.8508 24.7357 31.1013 22.4853C33.3517 20.2348 34.616 17.1826 34.616 14C34.616 10.8174 33.3517 7.76516 31.1013 5.51472C28.8508 3.26428 25.7986 2 22.616 2C19.4334 2 16.3812 3.26428 14.1307 5.51472C11.8803 7.76516 10.616 10.8174 10.616 14C10.616 17.1826 11.8803 20.2348 14.1307 22.4853C16.3812 24.7357 19.4334 26 22.616 26ZM37.496 48.56C39.5329 48.56 41.4863 47.7509 42.9266 46.3106C44.3669 44.8703 45.176 42.9169 45.176 40.88C45.176 38.8431 44.3669 36.8897 42.9266 35.4494C41.4863 34.0091 39.5329 33.2 37.496 33.2C35.4591 33.2 33.5057 34.0091 32.0654 35.4494C30.6251 36.8897 29.816 38.8431 29.816 40.88C29.816 42.9169 30.6251 44.8703 32.0654 46.3106C33.5057 47.7509 35.4591 48.56 37.496 48.56Z" stroke="#2359C0" stroke-width="3" stroke-linecap="round" stroke-linejoin="round"/>
</svg>
