<svg width="44" height="44" viewBox="0 0 44 44" fill="none" xmlns="http://www.w3.org/2000/svg">
<path d="M34.94 31.66L35.72 37.98C35.92 39.64 34.14 40.8 32.72 39.94L24.34 34.96C23.42 34.96 22.52 34.9 21.64 34.78C23.156 33.0226 23.9931 30.7809 24 28.46C24 22.78 19.08 18.18 13 18.18C10.68 18.18 8.53999 18.84 6.75999 20C6.69999 19.5 6.67999 19 6.67999 18.48C6.67999 9.38 14.58 2 24.34 2C34.1 2 42 9.38 42 18.48C42 23.88 39.22 28.66 34.94 31.66Z" stroke="#2359C0" stroke-width="3" stroke-linecap="round" stroke-linejoin="round"/>
<path d="M24 28.4599C24 30.8399 23.12 33.0399 21.64 34.7799C19.66 37.1799 16.52 38.7199 13 38.7199L7.78 41.8199C6.9 42.3599 5.78 41.6199 5.9 40.5999L6.4 36.6599C3.72 34.7999 2 31.8199 2 28.4599C2 24.9399 3.88 21.8399 6.76 19.9999C8.54 18.8399 10.68 18.1799 13 18.1799C19.08 18.1799 24 22.7799 24 28.4599Z" stroke="#2359C0" stroke-width="3" stroke-linecap="round" stroke-linejoin="round"/>
</svg>
