<svg width="120" height="61" viewBox="0 0 120 61" fill="none" xmlns="http://www.w3.org/2000/svg">
<rect y="0.493896" width="120" height="59.9347" rx="15" fill="#FDC13D"/>
<path d="M65.419 12.2622C64.0958 12.9238 62.6856 13.3417 60.8749 13.5506C60.0566 13.6376 59.8651 13.7247 59.778 14.0381C59.5691 14.8041 59.6214 14.8389 60.9445 14.8912L62.2329 14.9434L60.4396 23.3874C59.4472 28.0359 58.6464 31.9706 58.629 32.1273C58.629 32.4059 58.8379 32.4407 60.5963 32.4407H62.5637L64.7225 22.2905C65.9064 16.7192 66.8988 12.0185 66.9511 11.8444C67.0555 11.4439 66.9511 11.4788 65.419 12.2622Z" fill="white"/>
<path d="M44.8923 16.0402C43.7258 16.4754 43.1687 16.8759 42.7508 17.6419C42.4549 18.1816 42.4375 18.5821 42.4723 21.507L42.5245 24.7627L43.0294 25.285C43.8825 26.1729 44.9619 26.4341 47.7476 26.4167C49.2275 26.3993 50.5332 26.2948 51.0555 26.1555L51.926 25.9118L51.9783 23.161L52.0305 20.4276H49.9239H47.8346V21.211V21.9945H48.7051H49.5757V23.2828V24.5886L48.6181 24.6931C46.9815 24.902 45.2405 24.4841 44.9794 23.8226C44.9271 23.6659 44.8749 22.4297 44.8749 21.0891V18.6517L45.3624 18.1642C46.024 17.5026 47.0512 17.3634 49.4886 17.6071C50.5506 17.7116 51.543 17.816 51.6823 17.8508C51.8564 17.8857 51.9434 17.6767 51.9783 17.0152C52.0131 16.2839 51.9783 16.0924 51.7171 15.9879C51.543 15.9183 50.1502 15.8313 48.6181 15.7964C46.1981 15.7268 45.7106 15.7616 44.8923 16.0402Z" fill="white"/>
<path d="M21.8934 16.7713V17.6418H23.5473H25.2013V21.9944V26.3469H26.42H27.6387V21.9944V17.6418H29.2927H30.9467V16.7713V15.9008H26.42H21.8934V16.7713Z" fill="white"/>
<path d="M34.777 15.953C34.777 15.9878 34.0283 18.0422 33.1056 20.5319C32.1828 23.0042 31.3297 25.3371 31.1904 25.6853L30.9641 26.3469H32.2176H33.4886L33.9239 24.9889L34.3591 23.6483L36.2916 23.5961L38.2242 23.5439L38.6943 24.9541L39.1643 26.3469H40.4353H41.7236L41.2013 24.9019C40.9228 24.1184 40.0697 21.7854 39.3384 19.731L37.9804 15.9878L36.3787 15.9356C35.4908 15.9182 34.777 15.9182 34.777 15.953ZM37.0229 19.9051C37.3188 20.8105 37.5626 21.6636 37.5626 21.7854C37.5626 21.9247 37.1796 21.9944 36.2394 21.9944C35.247 21.9944 34.9336 21.9421 35.0033 21.768C35.0381 21.6636 35.3341 20.7582 35.6649 19.7833C35.9783 18.7909 36.2916 18.0597 36.3613 18.1293C36.4309 18.1989 36.7269 18.9998 37.0229 19.9051Z" fill="white"/>
<path d="M89.4798 38.5344C88.2089 38.7955 87.321 39.4049 86.8857 40.2754C86.5201 40.9718 86.4853 41.2852 86.4853 43.8445C86.4853 46.4038 86.5201 46.7172 86.8857 47.4136C87.5995 48.8412 89.7584 49.4854 92.7704 49.1546C93.6757 49.0676 94.5114 48.9805 94.6333 48.9805C94.7726 48.9805 94.8422 48.6671 94.8422 48.0055C94.8422 47.0306 94.8422 47.0306 94.3721 47.135C93.4494 47.3265 91.0642 47.4658 90.42 47.3439C89.1839 47.1002 89.0968 46.8913 89.0968 43.7923C89.0968 40.2232 88.9924 40.3624 91.482 40.3624C92.5092 40.3624 93.6931 40.4321 94.111 40.5017L94.8596 40.6584L94.8074 39.7357C94.7551 38.8826 94.7203 38.8129 94.2328 38.6737C93.4146 38.4473 90.2981 38.3603 89.4798 38.5344Z" fill="white"/>
<path d="M15.8346 43.7924L15.8869 49.0677L17.1578 49.1199L18.4113 49.1721V46.9784V44.8022H20.9358H23.4603V43.8446V42.887H20.9358H18.4113V41.5813V40.2755H21.197H23.9826V39.405V38.5345H19.8912H15.7998L15.8346 43.7924Z" fill="white"/>
<path d="M25.4102 43.7749L25.4625 49.0677L26.7334 49.1199L27.987 49.1721V47.0655V44.9763H28.5615C29.1012 44.9763 29.2231 45.0981 30.5289 47.0133L31.9043 49.0677L33.3493 49.1199C34.1328 49.1547 34.777 49.1373 34.777 49.0851C34.777 49.0328 34.1154 48.0405 33.2971 46.8914C32.061 45.1329 31.8694 44.7673 32.1306 44.6977C33.0359 44.4017 33.3841 44.2102 33.7672 43.8098C34.1328 43.4267 34.1676 43.2178 34.1676 41.6683C34.1676 40.2059 34.1154 39.9099 33.8194 39.5791C33.1056 38.7782 32.4788 38.6389 28.8052 38.5693L25.3754 38.4996L25.4102 43.7749ZM31.3994 40.6411C31.5561 40.763 31.6431 41.1982 31.6431 41.8598C31.6431 43.1308 31.4864 43.2352 29.4842 43.2352H27.987V41.738V40.2233L29.5713 40.3277C30.4418 40.38 31.2601 40.5192 31.3994 40.6411Z" fill="white"/>
<path d="M35.9957 43.8444V49.1545H40.0871H44.1785V48.197V47.2394H41.3929H38.6073V45.9336V44.6279H41.0447H43.4821V43.6703V42.7128H41.0447H38.6073V41.494V40.2753H41.3058H44.0044V39.4048V38.5343H40.0001H35.9957V43.8444Z" fill="white"/>
<path d="M45.5713 43.8444V49.1545H49.6627H53.7541V48.197V47.2394H50.9685H48.1828V45.9336V44.6279H50.6203H53.0577V43.6703V42.7128H50.6203H48.1828V41.494V40.2753H50.8814H53.58V39.4048V38.5343H49.5756H45.5713V43.8444Z" fill="white"/>
<path d="M55.1469 43.8444V49.1545L59.0293 49.1197L62.8944 49.0675V48.197V47.3265L60.3351 47.2742L57.7584 47.222V42.8869V38.5343H56.4526H55.1469V43.8444Z" fill="white"/>
<path d="M66.9162 39.0914C66.3069 40.5887 63.3297 48.7541 63.3297 48.9456C63.3297 49.0849 63.7127 49.1545 64.5136 49.1545H65.6975L66.1328 47.7965L66.568 46.456H68.5354H70.5201L70.9728 47.7617L71.4255 49.0675L72.7138 49.1197C73.7062 49.1545 73.9674 49.1197 73.9151 48.9456C73.8629 48.8237 73.0098 46.4211 72.0174 43.6355L70.2068 38.5343H68.6747H67.1426L66.9162 39.0914ZM69.284 42.7128L69.9108 44.6279H68.5528H67.1948L67.8216 42.7128C68.1698 41.6507 68.5006 40.7976 68.5528 40.7976C68.605 40.7976 68.9358 41.6507 69.284 42.7128Z" fill="white"/>
<path d="M74.8204 43.8444V49.1545H75.9521H77.0838L77.1186 45.5158L77.1708 41.8597L79.6953 45.4984L82.2198 49.1371L83.4907 49.1545H84.7443V43.8444V38.5343H83.6126H82.4809L82.4461 42.0512L82.3939 45.5854L79.9042 42.0512L77.4146 38.5343H76.1088H74.8204V43.8444Z" fill="white"/>
<path d="M96.0957 43.7921L96.148 49.0674H100.239H104.331V48.1969V47.3264L101.51 47.2741L98.6724 47.2393V45.9335V44.6452L101.162 44.593L103.634 44.5407V43.6702V42.7997L101.162 42.7475L98.6724 42.6952V41.4939V40.2752H101.458H104.244V39.4047V38.5342H100.152H96.0609L96.0957 43.7921Z" fill="white"/>
</svg>
