<svg width="170" height="30" viewBox="0 0 170 30" fill="none" xmlns="http://www.w3.org/2000/svg">
<g id="Group 61">
<path id="Star 1" d="M14.0554 2.71739C14.3667 1.82183 15.6333 1.82183 15.9446 2.71739L18.2982 9.48861C18.4356 9.88368 18.8043 10.1516 19.2224 10.1601L26.3896 10.3061C27.3375 10.3254 27.7289 11.53 26.9733 12.1028L21.2609 16.4337C20.9276 16.6864 20.7867 17.1198 20.9078 17.5201L22.9837 24.3816C23.2583 25.2891 22.2336 26.0336 21.4554 25.492L15.5712 21.3975C15.2279 21.1586 14.7721 21.1586 14.4288 21.3975L8.54463 25.492C7.76639 26.0336 6.74174 25.2891 7.01629 24.3816L9.09216 17.5201C9.21327 17.1198 9.07245 16.6864 8.73915 16.4337L3.02666 12.1028C2.27112 11.53 2.6625 10.3254 3.61043 10.3061L10.7776 10.1601C11.1957 10.1516 11.5644 9.88368 11.7018 9.48861L14.0554 2.71739Z" fill="#FDC13D"/>
<path id="Star 2" d="M49.0554 2.71739C49.3667 1.82183 50.6333 1.82183 50.9446 2.71739L53.2982 9.48861C53.4356 9.88368 53.8043 10.1516 54.2224 10.1601L61.3896 10.3061C62.3375 10.3254 62.7289 11.53 61.9733 12.1028L56.2609 16.4337C55.9276 16.6864 55.7867 17.1198 55.9078 17.5201L57.9837 24.3816C58.2583 25.2891 57.2336 26.0336 56.4554 25.492L50.5712 21.3975C50.2279 21.1586 49.7721 21.1586 49.4288 21.3975L43.5446 25.492C42.7664 26.0336 41.7417 25.2891 42.0163 24.3816L44.0922 17.5201C44.2133 17.1198 44.0724 16.6864 43.7391 16.4337L38.0267 12.1028C37.2711 11.53 37.6625 10.3254 38.6104 10.3061L45.7776 10.1601C46.1957 10.1516 46.5644 9.88368 46.7018 9.48861L49.0554 2.71739Z" fill="#FDC13D"/>
<path id="Star 3" d="M84.0554 2.71739C84.3667 1.82183 85.6333 1.82183 85.9446 2.71739L88.2982 9.48861C88.4356 9.88368 88.8043 10.1516 89.2224 10.1601L96.3896 10.3061C97.3375 10.3254 97.7289 11.53 96.9733 12.1028L91.2609 16.4337C90.9276 16.6864 90.7867 17.1198 90.9078 17.5201L92.9837 24.3816C93.2583 25.2891 92.2336 26.0336 91.4554 25.492L85.5712 21.3975C85.2279 21.1586 84.7721 21.1586 84.4288 21.3975L78.5446 25.492C77.7664 26.0336 76.7417 25.2891 77.0163 24.3816L79.0922 17.5201C79.2133 17.1198 79.0724 16.6864 78.7391 16.4337L73.0267 12.1028C72.2711 11.53 72.6625 10.3254 73.6104 10.3061L80.7776 10.1601C81.1957 10.1516 81.5644 9.88368 81.7018 9.48861L84.0554 2.71739Z" fill="#FDC13D"/>
<path id="Star 4" d="M119.055 2.71739C119.367 1.82183 120.633 1.82183 120.945 2.71739L123.298 9.48861C123.436 9.88368 123.804 10.1516 124.222 10.1601L131.39 10.3061C132.337 10.3254 132.729 11.53 131.973 12.1028L126.261 16.4337C125.928 16.6864 125.787 17.1198 125.908 17.5201L127.984 24.3816C128.258 25.2891 127.234 26.0336 126.455 25.492L120.571 21.3975C120.228 21.1586 119.772 21.1586 119.429 21.3975L113.545 25.492C112.766 26.0336 111.742 25.2891 112.016 24.3816L114.092 17.5201C114.213 17.1198 114.072 16.6864 113.739 16.4337L108.027 12.1028C107.271 11.53 107.663 10.3254 108.61 10.3061L115.778 10.1601C116.196 10.1516 116.564 9.88368 116.702 9.48861L119.055 2.71739Z" fill="#D9D9D9"/>
<path id="Star 5" d="M154.055 2.71739C154.367 1.82183 155.633 1.82183 155.945 2.71739L158.298 9.48861C158.436 9.88368 158.804 10.1516 159.222 10.1601L166.39 10.3061C167.337 10.3254 167.729 11.53 166.973 12.1028L161.261 16.4337C160.928 16.6864 160.787 17.1198 160.908 17.5201L162.984 24.3816C163.258 25.2891 162.234 26.0336 161.455 25.492L155.571 21.3975C155.228 21.1586 154.772 21.1586 154.429 21.3975L148.545 25.492C147.766 26.0336 146.742 25.2891 147.016 24.3816L149.092 17.5201C149.213 17.1198 149.072 16.6864 148.739 16.4337L143.027 12.1028C142.271 11.53 142.663 10.3254 143.61 10.3061L150.778 10.1601C151.196 10.1516 151.564 9.88368 151.702 9.48861L154.055 2.71739Z" fill="#D9D9D9"/>
</g>
</svg>
